<svg width="26" height="25" viewBox="0 0 26 25" fill="none" xmlns="http://www.w3.org/2000/svg">
<g clip-path="url(#clip0_12_184)">
<rect x="0.0301514" width="25" height="25" rx="11" fill="black"/>
<path d="M9.54208 7.54718C10.017 7.54718 10.4558 7.58098 10.8584 7.68237C11.261 7.74997 11.5912 7.88939 11.8852 8.05838C12.1793 8.22737 12.3964 8.46818 12.5457 8.77659C12.6904 9.085 12.7673 9.46101 12.7673 9.87082C12.7673 10.3482 12.6588 10.758 12.4009 11.0664C12.1793 11.3748 11.8174 11.6495 11.3741 11.8522C11.9983 12.0212 12.4733 12.3296 12.7628 12.7395C13.0523 13.1493 13.2378 13.6605 13.2378 14.2435C13.2378 14.7209 13.1292 15.1307 12.9437 15.4729C12.7628 15.8151 12.4688 16.1235 12.1386 16.3263C11.8083 16.5333 11.4058 16.7023 10.967 16.8037C10.5282 16.9051 10.0894 16.9727 9.65064 16.9727L4.74719 16.9811V7.54718H9.54208ZM9.24805 11.3748C9.65064 11.3748 9.98086 11.2734 10.2342 11.1002C10.4875 10.927 10.6006 10.6228 10.6006 10.2468C10.6006 10.0398 10.5644 9.83702 10.492 9.70182C10.4196 9.56663 10.3111 9.46101 10.1618 9.35962C10.017 9.29202 9.86777 9.22442 9.68683 9.19062C9.50589 9.15683 9.32043 9.15683 9.1033 9.15683H6.98179V11.3791C6.98179 11.3748 9.24805 11.3748 9.24805 11.3748ZM9.35662 15.4095C9.57827 15.4095 9.79539 15.3757 9.98086 15.3419C10.1618 15.3081 10.3473 15.2405 10.492 15.1349C10.6368 15.0293 10.7498 14.9279 10.8584 14.7589C10.9308 14.5899 11.0032 14.3829 11.0032 14.1421C11.0032 13.6647 10.8584 13.3225 10.5644 13.0817C10.2704 12.8746 9.86777 12.7732 9.3928 12.7732H6.98179V15.4053H9.35662V15.4095Z" fill="white"/>
<path d="M16.4137 15.6226C16.681 15.8954 17.0798 16.0298 17.6102 16.0298C17.9761 16.0298 18.3092 15.929 18.5764 15.7569C18.8437 15.5512 19.0082 15.3497 19.0739 15.144H20.7021C20.4349 15.9584 20.036 16.5377 19.5057 16.9113C18.9753 17.2513 18.3421 17.4528 17.5773 17.4528C17.0469 17.4528 16.5782 17.3521 16.1465 17.1799C15.7148 17.012 15.3817 16.7728 15.0816 16.4327C14.7814 16.1263 14.5512 15.7527 14.4155 15.3119C14.251 14.8712 14.1812 14.3968 14.1812 13.8511C14.1812 13.3432 14.2469 12.8646 14.4155 12.4239C14.5841 11.9831 14.8143 11.6095 15.1145 11.2695C15.4146 10.963 15.7806 10.6902 16.1794 10.5223C16.6111 10.3544 17.0428 10.2494 17.5773 10.2494C18.1447 10.2494 18.6422 10.3502 19.0739 10.5894C19.5057 10.8287 19.8387 11.0974 20.1059 11.5045C20.3732 11.8781 20.5706 12.3189 20.7062 12.7933C20.772 13.2676 20.8049 13.7462 20.772 14.2877H15.9491C15.9491 14.8418 16.1465 15.3497 16.4137 15.6226ZM18.5107 12.0545C18.2763 11.8152 17.9104 11.6809 17.4786 11.6809C17.1785 11.6809 16.9482 11.748 16.7468 11.8488C16.5453 11.9495 16.4137 12.088 16.2822 12.2224C16.1506 12.3567 16.0807 12.5288 16.0478 12.6967C16.0149 12.8646 15.982 13.0032 15.982 13.1375H18.9753C18.9095 12.6338 18.7409 12.2937 18.5107 12.0545ZM15.5832 8.49054H19.3083V9.40566H15.5832V8.49054Z" fill="white"/>
</g>
<defs>
<clipPath id="clip0_12_184">
<rect width="25" height="25" fill="white" transform="translate(0.0301514)"/>
</clipPath>
</defs>
</svg>
