<svg width="26" height="25" viewBox="0 0 26 25" fill="none" xmlns="http://www.w3.org/2000/svg">
<g clip-path="url(#clip0_12_182)">
<path d="M20.289 19.8818L18.8797 18.4626L18.876 18.4663L20.289 19.8818ZM12.9395 22.9167L12.9421 20.9167H12.9395V22.9167ZM2.52284 12.5L4.52284 12.5L4.52283 12.4973L2.52284 12.5ZM5.38742 5.32551L6.83555 6.70499L6.83911 6.70123L5.38742 5.32551ZM12.9395 2.08332L12.937 4.08333L12.9421 4.08332L12.9395 2.08332ZM20.289 5.11822L18.8773 6.53498L18.8797 6.53736L20.289 5.11822ZM13.8911 13.5745L13.0871 11.7432L13.0869 11.7432L13.8911 13.5745ZM3.97254 18.6735C3.31271 19.5593 3.49592 20.8123 4.38175 21.4722C5.26758 22.132 6.52059 21.9488 7.18042 21.0629L3.97254 18.6735ZM10.3898 1.37095C9.57808 0.621777 8.31277 0.67244 7.56359 1.48411C6.81442 2.29578 6.86508 3.5611 7.67675 4.31027L10.3898 1.37095ZM15.5437 11.9792L17.4326 11.3221L17.4326 11.322L15.5437 11.9792ZM15.7079 22.2318C15.9524 23.309 17.0238 23.984 18.101 23.7394C19.1782 23.4949 19.8532 22.4235 19.6086 21.3463L15.7079 22.2318ZM2.72352 9.20154C1.62096 9.135 0.673216 9.97486 0.606677 11.0774C0.540138 12.18 1.38 13.1277 2.48257 13.1943L2.72352 9.20154ZM21.5886 6.65571C22.4326 5.94311 22.5391 4.68126 21.8265 3.8373C21.1139 2.99335 19.852 2.88686 19.0081 3.59947L21.5886 6.65571ZM5.15256 15.7015C4.73082 14.6806 3.56133 14.1949 2.54045 14.6166C1.51957 15.0384 1.03387 16.2078 1.45561 17.2287L5.15256 15.7015ZM7.03971 23.4277C8.01115 23.9534 9.22483 23.5921 9.75054 22.6206C10.2763 21.6492 9.91491 20.4355 8.94347 19.9098L7.03971 23.4277ZM17.9079 1.1177C16.8959 0.674935 15.7166 1.13635 15.2739 2.1483C14.8311 3.16024 15.2925 4.33952 16.3045 4.78228L17.9079 1.1177ZM20.8267 15.4452C20.4397 16.4798 20.9647 17.6321 21.9993 18.0191C23.0338 18.406 24.1862 17.881 24.5732 16.8465L20.8267 15.4452ZM21.3562 12.5026C21.3576 13.6103 21.1395 14.7074 20.7144 15.7304L24.4082 17.2652C25.0361 15.7542 25.3583 14.1337 25.3562 12.4974L21.3562 12.5026ZM20.7144 15.7304C20.2893 16.7534 19.6658 17.682 18.8797 18.4626L21.6983 21.3009C22.8593 20.1479 23.7804 18.7763 24.4082 17.2652L20.7144 15.7304ZM18.876 18.4663C18.0964 19.2445 17.1711 19.8615 16.1529 20.282L17.6796 23.9791C19.1836 23.3581 20.5504 22.4468 21.702 21.2972L18.876 18.4663ZM16.1529 20.282C15.1347 20.7024 14.0437 20.9181 12.9421 20.9167L12.9369 24.9167C14.564 24.9188 16.1756 24.6002 17.6796 23.9791L16.1529 20.282ZM12.9395 20.9167C8.29095 20.9167 4.52284 17.1485 4.52284 12.5H0.522837C0.522837 19.3577 6.08181 24.9167 12.9395 24.9167V20.9167ZM4.52283 12.4973C4.51989 10.3409 5.34821 8.26633 6.83554 6.70498L3.9393 3.94604C1.74212 6.25256 0.518495 9.31719 0.522839 12.5027L4.52283 12.4973ZM6.83911 6.70123C7.62399 5.873 8.56963 5.21364 9.61814 4.76351L8.04017 1.08791C6.49159 1.75273 5.09495 2.72656 3.93573 3.94979L6.83911 6.70123ZM9.61814 4.76351C10.6667 4.31337 11.796 4.08192 12.937 4.08332L12.942 0.0833232C11.2567 0.081253 9.58875 0.423088 8.04017 1.08791L9.61814 4.76351ZM12.9421 4.08332C14.0437 4.08189 15.1347 4.29757 16.1529 4.71801L17.6796 1.02083C16.1757 0.399788 14.5641 0.0812162 12.9369 0.0833234L12.9421 4.08332ZM16.1529 4.71801C17.1711 5.13846 18.0964 5.75543 18.876 6.53367L21.702 3.70276C20.5504 2.55321 19.1836 1.64188 17.6796 1.02083L16.1529 4.71801ZM18.8797 6.53736C19.6658 7.31795 20.2893 8.24656 20.7144 9.26956L24.4082 7.73474C23.7804 6.2237 22.8593 4.85206 21.6983 3.69907L18.8797 6.53736ZM20.7144 9.26956C21.1395 10.2926 21.3576 11.3896 21.3562 12.4974L25.3562 12.5026C25.3583 10.8663 25.0361 9.24578 24.4082 7.73474L20.7144 9.26956ZM23.3562 10.5C22.2084 10.5 17.3439 9.87443 13.0871 11.7432L14.695 15.4058C17.9434 13.9797 21.4644 14.5 23.3562 14.5V10.5ZM13.0869 11.7432C8.67899 13.6789 5.45654 16.6812 3.97254 18.6735L7.18042 21.0629C8.26934 19.6011 10.95 17.0503 14.6952 15.4057L13.0869 11.7432ZM7.67675 4.31027C9.25258 5.76477 12.5004 9.31846 13.6547 12.6363L17.4326 11.322C15.9411 7.03464 12.0743 2.92584 10.3898 1.37095L7.67675 4.31027ZM13.6547 12.6362C14.2648 14.3901 14.6961 16.3894 15.0153 18.1651C15.174 19.0475 15.3017 19.8559 15.4113 20.5441C15.5154 21.1976 15.6142 21.8193 15.7079 22.2318L19.6086 21.3463C19.5512 21.0935 19.4756 20.6316 19.3616 19.9152C19.253 19.2336 19.1191 18.3857 18.9522 17.4574C18.6204 15.6116 18.1455 13.3713 17.4326 11.3221L13.6547 12.6362ZM2.48257 13.1943C3.52401 13.2571 5.40877 13.3165 7.48438 13.1725C9.52392 13.0309 11.9238 12.6825 13.8984 11.8393L12.3275 8.16067C10.9688 8.7409 9.09753 9.05086 7.20738 9.18207C5.35331 9.31077 3.64979 9.25744 2.72352 9.20154L2.48257 13.1943ZM13.8984 11.8393C17.5684 10.2721 20.6869 7.41708 21.5886 6.65571L19.0081 3.59947C17.9421 4.49957 15.3241 6.88101 12.3275 8.16067L13.8984 11.8393ZM1.45561 17.2287C2.54905 19.8755 4.52109 22.0647 7.03971 23.4277L8.94347 19.9098C7.23364 18.9845 5.89487 17.4983 5.15256 15.7015L1.45561 17.2287ZM16.3045 4.78228C17.2634 5.20184 18.1359 5.79619 18.8773 6.53498L21.7006 3.70146C20.6076 2.61237 19.3215 1.7362 17.9079 1.1177L16.3045 4.78228ZM21.3562 12.5C21.3562 13.5401 21.1685 14.5312 20.8267 15.4452L24.5732 16.8465C25.0803 15.4907 25.3562 14.0255 25.3562 12.5H21.3562Z" fill="black"/>
</g>
<defs>
<clipPath id="clip0_12_182">
<rect width="25" height="25" fill="white" transform="translate(0.439453)"/>
</clipPath>
</defs>
</svg>
