<svg width="25" height="25" viewBox="0 0 25 25" fill="none" xmlns="http://www.w3.org/2000/svg">
<g clip-path="url(#clip0_12_180)">
<path fill-rule="evenodd" clip-rule="evenodd" d="M7.31401 0.0746674C8.64106 0.0135759 9.06417 0 12.4446 0C15.825 0 16.2481 0.0147072 17.574 0.0746674C18.8999 0.134628 19.805 0.346185 20.5969 0.652774C21.4262 0.966151 22.1785 1.45601 22.8007 2.08956C23.4343 2.71065 23.923 3.46185 24.2352 4.29225C24.543 5.08417 24.7534 5.98923 24.8145 7.31288C24.8756 8.64219 24.8891 9.0653 24.8891 12.4446C24.8891 15.825 24.8744 16.2481 24.8145 17.5751C24.7545 18.8988 24.543 19.8038 24.2352 20.5958C23.923 21.4263 23.4334 22.1787 22.8007 22.8007C22.1785 23.4343 21.4262 23.923 20.5969 24.2352C19.805 24.543 18.8999 24.7534 17.5763 24.8145C16.2481 24.8756 15.825 24.8891 12.4446 24.8891C9.06417 24.8891 8.64106 24.8744 7.31401 24.8145C5.99036 24.7545 5.0853 24.543 4.29338 24.2352C3.46289 23.9229 2.71045 23.4334 2.08843 22.8007C1.45531 22.1792 0.965376 21.4272 0.652774 20.5969C0.346185 19.805 0.135759 18.8999 0.0746674 17.5763C0.0135759 16.247 0 15.8238 0 12.4446C0 9.06417 0.0147072 8.64106 0.0746674 7.31514C0.134628 5.98923 0.346185 5.08417 0.652774 4.29225C0.965838 3.46195 1.45615 2.70988 2.08956 2.08843C2.7107 1.45545 3.46239 0.965521 4.29225 0.652774C5.08417 0.346185 5.98923 0.135759 7.31288 0.0746674H7.31401ZM17.4733 2.31469C16.161 2.25473 15.7673 2.24229 12.4446 2.24229C9.12187 2.24229 8.72817 2.25473 7.41583 2.31469C6.20192 2.37012 5.54349 2.57263 5.10454 2.74346C4.52417 2.96973 4.10897 3.23785 3.67341 3.67341C3.26053 4.07509 2.94278 4.56408 2.74346 5.10454C2.57263 5.54349 2.37012 6.20192 2.31469 7.41583C2.25473 8.72817 2.24229 9.12187 2.24229 12.4446C2.24229 15.7673 2.25473 16.161 2.31469 17.4733C2.37012 18.6872 2.57263 19.3457 2.74346 19.7846C2.94258 20.3242 3.26048 20.8141 3.67341 21.2157C4.07503 21.6287 4.56489 21.9466 5.10454 22.1457C5.54349 22.3165 6.20192 22.519 7.41583 22.5745C8.72817 22.6344 9.12074 22.6469 12.4446 22.6469C15.7684 22.6469 16.161 22.6344 17.4733 22.5745C18.6872 22.519 19.3457 22.3165 19.7846 22.1457C20.365 21.9194 20.7802 21.6513 21.2157 21.2157C21.6287 20.8141 21.9466 20.3242 22.1457 19.7846C22.3165 19.3457 22.519 18.6872 22.5745 17.4733C22.6344 16.161 22.6469 15.7673 22.6469 12.4446C22.6469 9.12187 22.6344 8.72817 22.5745 7.41583C22.519 6.20192 22.3165 5.54349 22.1457 5.10454C21.9194 4.52417 21.6513 4.10897 21.2157 3.67341C20.814 3.26056 20.325 2.94281 19.7846 2.74346C19.3457 2.57263 18.6872 2.37012 17.4733 2.31469ZM10.8551 16.2809C11.7428 16.6504 12.7312 16.7003 13.6516 16.422C14.572 16.1437 15.3672 15.5545 15.9015 14.755C16.4357 13.9555 16.6758 12.9954 16.5807 12.0385C16.4857 11.0817 16.0614 10.1875 15.3804 9.50878C14.9462 9.07489 14.4212 8.74266 13.8433 8.53601C13.2653 8.32936 12.6487 8.25342 12.0379 8.31367C11.427 8.37392 10.8371 8.56885 10.3107 8.88444C9.78421 9.20003 9.33427 9.62841 8.99324 10.1388C8.65221 10.6491 8.42858 11.2287 8.33845 11.8359C8.24831 12.443 8.29391 13.0626 8.47197 13.65C8.65003 14.2374 8.95611 14.7781 9.36818 15.233C9.78026 15.6879 10.2881 16.0458 10.8551 16.2809ZM7.92153 7.92153C8.51551 7.32756 9.22066 6.8564 9.99672 6.53494C10.7728 6.21348 11.6046 6.04803 12.4446 6.04803C13.2846 6.04803 14.1164 6.21348 14.8924 6.53494C15.6685 6.8564 16.3736 7.32756 16.9676 7.92153C17.5616 8.51551 18.0327 9.22066 18.3542 9.99672C18.6757 10.7728 18.8411 11.6046 18.8411 12.4446C18.8411 13.2846 18.6757 14.1164 18.3542 14.8924C18.0327 15.6685 17.5616 16.3736 16.9676 16.9676C15.768 18.1672 14.141 18.8411 12.4446 18.8411C10.7481 18.8411 9.12112 18.1672 7.92153 16.9676C6.72195 15.768 6.04803 14.141 6.04803 12.4446C6.04803 10.7481 6.72195 9.12112 7.92153 7.92153ZM20.2598 7.00064C20.407 6.86179 20.5248 6.69482 20.6063 6.50961C20.6878 6.32441 20.7313 6.12473 20.7343 5.9224C20.7372 5.72008 20.6995 5.51922 20.6235 5.33172C20.5474 5.14421 20.4345 4.97388 20.2914 4.8308C20.1483 4.68772 19.978 4.5748 19.7905 4.49873C19.603 4.42266 19.4021 4.38499 19.1998 4.38794C18.9975 4.39089 18.7978 4.4344 18.6126 4.5159C18.4274 4.59741 18.2604 4.71524 18.1216 4.86243C17.8515 5.14869 17.7037 5.52892 17.7094 5.9224C17.7152 6.31589 17.874 6.69165 18.1523 6.96991C18.4305 7.24818 18.8063 7.40704 19.1998 7.41278C19.5933 7.41851 19.9735 7.27067 20.2598 7.00064Z" fill="black"/>
</g>
<defs>
<clipPath id="clip0_12_180">
<rect width="24.8891" height="24.8891" fill="white"/>
</clipPath>
</defs>
</svg>
