<svg width="26" height="25" viewBox="0 0 26 25" fill="none" xmlns="http://www.w3.org/2000/svg">
<g clip-path="url(#clip0_12_174)">
<path d="M18.078 9.12284C19.6145 10.2251 21.4968 10.8737 23.5298 10.8737V6.94767C23.145 6.94775 22.7613 6.90749 22.3849 6.82746V9.91776C20.3521 9.91776 18.47 9.26921 16.9331 8.16703V16.1788C16.9331 20.1867 13.6956 23.4355 9.70219 23.4355C8.21215 23.4355 6.82722 22.9835 5.67676 22.2081C6.98982 23.5555 8.82099 24.3913 10.8469 24.3913C14.8405 24.3913 18.0782 21.1425 18.0782 17.1345V9.12284H18.078V9.12284ZM19.4904 5.16201C18.7051 4.30107 18.1896 3.18848 18.078 1.95846V1.45349H16.993C17.2661 3.01685 18.1977 4.35249 19.4904 5.16201ZM8.2026 19.1326C7.76387 18.5553 7.52679 17.8491 7.52785 17.123C7.52785 15.2899 9.00866 13.8036 10.8356 13.8036C11.1761 13.8036 11.5145 13.8559 11.839 13.9592V9.94548C11.4598 9.89332 11.0771 9.87118 10.6945 9.8793V13.0034C10.3698 12.9001 10.0312 12.8476 9.69067 12.8479C7.86375 12.8479 6.38303 14.334 6.38303 16.1673C6.38303 17.4636 7.12319 18.5859 8.2026 19.1326Z" fill="black"/>
<path d="M16.9331 8.16695C18.47 9.26913 20.3521 9.91768 22.3849 9.91768V6.82737C21.2502 6.58481 20.2456 5.98973 19.4904 5.16201C18.1976 4.35241 17.2661 3.01677 16.993 1.45349H14.1431V17.1343C14.1367 18.9624 12.6584 20.4426 10.8354 20.4426C9.76114 20.4426 8.80676 19.9287 8.20234 19.1326C7.12301 18.5859 6.38285 17.4635 6.38285 16.1674C6.38285 14.3343 7.86358 12.848 9.6905 12.848C10.0405 12.848 10.3779 12.9027 10.6944 13.0035V9.87938C6.7711 9.96073 3.61584 13.1778 3.61584 17.1344C3.61584 19.1095 4.40158 20.9 5.67683 22.2082C6.82729 22.9835 8.21222 23.4356 9.70226 23.4356C13.6958 23.4356 16.9332 20.1866 16.9332 16.1788V8.16695H16.9331Z" fill="black"/>
<path d="M22.3848 6.82741V5.99182C21.3616 5.99338 20.3584 5.7058 19.4903 5.16196C20.2588 6.00633 21.2707 6.58854 22.3848 6.82741ZM16.993 1.45353C16.9669 1.30412 16.9469 1.15373 16.933 1.00277V0.497803H12.9981V16.1788C12.9918 18.0066 11.5136 19.4868 9.69043 19.4868C9.15517 19.4868 8.64981 19.3593 8.20227 19.1327C8.80669 19.9287 9.76107 20.4425 10.8353 20.4425C12.6582 20.4425 14.1367 18.9625 14.1431 17.1344V1.45353H16.993ZM10.6945 9.87942V8.98987C10.3657 8.94477 10.0342 8.92214 9.70227 8.9223C5.70844 8.92222 2.47095 12.1712 2.47095 16.1788C2.47095 18.6913 3.74334 20.9056 5.67684 22.2081C4.40159 20.8999 3.61586 19.1093 3.61586 17.1343C3.61586 13.1778 6.77103 9.96077 10.6945 9.87942Z" fill="black"/>
</g>
<defs>
<clipPath id="clip0_12_174">
<rect width="24.8891" height="24.8891" fill="white" transform="translate(0.479858)"/>
</clipPath>
</defs>
</svg>
