<svg width="26" height="25" viewBox="0 0 26 25" fill="none" xmlns="http://www.w3.org/2000/svg">
<g clip-path="url(#clip0_12_178)">
<path d="M10.9153 16.0729V8.81618L17.3864 12.4445L10.9153 16.0729Z" fill="white"/>
<path d="M25.3236 6.62455C25.182 6.11339 24.9047 5.64734 24.5194 5.27303C24.1341 4.89872 23.6543 4.62929 23.1282 4.4917C21.1905 3.98224 13.4042 3.98224 13.4042 3.98224C13.4042 3.98224 5.61784 3.98224 3.68014 4.4917C3.15398 4.62929 2.67424 4.89872 2.28895 5.27303C1.90365 5.64734 1.62631 6.11339 1.48469 6.62455C1.12287 8.54434 0.947298 10.4929 0.960264 12.4445C0.947298 14.3962 1.12287 16.3447 1.48469 18.2645C1.62631 18.7757 1.90365 19.2418 2.28895 19.6161C2.67424 19.9904 3.15398 20.2598 3.68014 20.3974C5.61784 20.9069 13.4042 20.9069 13.4042 20.9069C13.4042 20.9069 21.1905 20.9069 23.1282 20.3974C23.6543 20.2598 24.1341 19.9904 24.5194 19.6161C24.9047 19.2418 25.182 18.7757 25.3236 18.2645C25.6855 16.3447 25.861 14.3962 25.8481 12.4445C25.861 10.4929 25.6855 8.54434 25.3236 6.62455ZM10.9154 16.0712V8.81784L17.3773 12.4445L10.9154 16.0712Z" fill="black"/>
</g>
<defs>
<clipPath id="clip0_12_178">
<rect width="24.8891" height="24.8891" fill="white" transform="translate(0.959595)"/>
</clipPath>
</defs>
</svg>
